<svg xmlns="http://www.w3.org/2000/svg" viewBox="0 0 123 123"><path d="M50.3054375 53.459V33.24415625Q50.3054375 30.431656250000003 48.84059375 28.908218750000003Q47.37575 27.384781250000003 44.73903125 27.384781250000003Q37.4148125 27.384781250000003 37.4148125 35.9980625V53.459H31.203875V22.404312500000003H36.828875L37.326921875 28.029312500000003H38.00075Q38.52809375 21.818375000000003 46.203875 21.818375000000003Q51.12575 21.818375000000003 53.8210625 24.806656250000003Q56.516375 27.794937500000003 56.516375 33.24415625V53.459Z" fill="#000000"/><path d="M79.016375 54.0449375Q72.5710625 54.0449375 68.99684375 49.8261875Q65.422625 45.6074375 65.422625 37.93165625Q65.422625 30.226578125000003 68.99684375 26.022476562500003Q72.5710625 21.818375000000003 79.016375 21.818375000000003Q85.490984375 21.818375000000003 89.0505546875 26.022476562500003Q92.610125 30.226578125000003 92.610125 37.93165625Q92.610125 45.6074375 89.0505546875 49.8261875Q85.490984375 54.0449375 79.016375 54.0449375ZM79.016375 48.47853125Q82.444109375 48.47853125 84.3044609375 45.724625Q86.1648125 42.97071875 86.1648125 37.93165625Q86.1648125 32.863296875 84.3044609375 30.124039062500003Q82.444109375 27.384781250000003 79.016375 27.384781250000003Q75.588640625 27.384781250000003 73.7282890625 30.124039062500003Q71.8679375 32.863296875 71.8679375 37.93165625Q71.8679375 42.97071875 73.7282890625 45.724625Q75.588640625 48.47853125 79.016375 48.47853125Z" fill="#000000"/><path d="M49.485125 102.1969375Q42.424578125 102.1969375 39.2751640625 99.26725Q36.12575 96.3375625 36.12575 89.89225V76.00553125H28.33278125V70.5563125H36.12575V61.181312500000004H42.3366875V70.5563125H56.45778125V76.00553125H42.3366875V89.59928125Q42.3366875 93.2906875 44.1384453125 94.960609375Q45.940203125 96.63053125 50.0710625 96.63053125Q51.53590625 96.63053125 53.17653125 96.4693984375Q54.81715625 96.308265625 56.92653125 96.04459375L57.62965625 101.4938125Q55.578875 101.845375 53.6306328125 102.02115625Q51.682390625 102.1969375 49.485125 102.1969375Z" fill="#000000"/><path d="M66.12575 101.611V96.16178125H77.9616875V76.00553125H67.8835625V70.5563125H84.172625V96.16178125H93.72340625V101.611ZM80.862078125 65.6344375Q79.07496875 65.6344375 77.8005546875 64.3600234375Q76.526140625 63.085609375000004 76.526140625 61.298500000000004Q76.526140625 59.482093750000004 77.8005546875 58.222328125000004Q79.07496875 56.962562500000004 80.862078125 56.962562500000004Q82.678484375 56.962562500000004 83.93825 58.222328125000004Q85.198015625 59.482093750000004 85.198015625 61.298500000000004Q85.198015625 63.085609375000004 83.93825 64.3600234375Q82.678484375 65.6344375 80.862078125 65.6344375Z" fill="#000000"/><path d="M102.004125 102.2089375Q100.217015625 102.2089375 98.9426015625 100.9345234375Q97.6681875 99.660109375 97.6681875 97.873Q97.6681875 96.05659375 98.9426015625 94.796828125Q100.217015625 93.5370625 102.004125 93.5370625Q103.82053125 93.5370625 105.080296875 94.796828125Q106.3400625 96.05659375 106.3400625 97.873Q106.3400625 99.660109375 105.080296875 100.9345234375Q103.82053125 102.2089375 102.004125 102.2089375Z" fill="#000000"/></svg>